<svg width="157" height="157" viewBox="0 0 157 157" fill="none" xmlns="http://www.w3.org/2000/svg">
<circle cx="78.5" cy="78.5" r="78.5" fill="white"/>
<path d="M103.008 122.27C102.551 122.27 102.028 122.205 101.44 122.074C100.917 121.944 100.395 121.747 99.8719 121.486C97.5849 120.31 95.7553 118.284 94.3831 115.409C93.0763 112.534 92.0961 109.136 91.4427 105.216C90.8546 101.295 90.4953 97.2768 90.3646 93.1602C85.1372 91.4613 79.8771 90.2525 74.5844 89.5337L72.6241 94.7285C71.2519 98.453 69.357 101.851 66.9394 104.922C64.5217 107.993 61.8753 110.411 59.0003 112.175C56.1252 114.004 53.2828 114.919 50.4731 114.919C47.7287 114.919 45.0824 113.874 42.534 111.783C40.051 109.757 37.9274 106.425 36.1631 101.785C35.6404 100.348 35.2483 98.8777 34.987 97.3748C34.7256 95.8066 34.5949 94.2384 34.5949 92.6702C34.5949 90.1872 34.8563 87.7368 35.379 85.3192C35.9671 82.8362 36.6859 80.5492 37.5353 78.4582C38.2541 76.89 39.2342 75.1911 40.4757 73.3615C41.7172 71.5319 42.8934 70.0617 44.0042 68.9509C44.3309 68.6242 44.7556 68.2648 45.2784 67.8728C45.8011 67.4807 46.1605 67.2847 46.3565 67.2847C46.4219 67.2847 46.4545 67.3174 46.4545 67.3827C46.4545 67.7094 45.9645 68.3955 44.9843 69.441C42.3707 72.1854 40.4757 75.4525 39.2996 79.2423C38.1234 83.0322 37.5353 86.8547 37.5353 90.7099C37.5353 95.1532 38.2541 99.2697 39.6916 103.06C41.1292 106.849 42.7954 109.561 44.6903 111.195C46.5852 112.828 48.5455 113.645 50.5711 113.645C52.5314 113.645 54.4917 112.992 56.4519 111.685C58.4775 110.443 60.3398 108.875 62.0387 106.98C63.5416 105.281 65.0771 102.864 66.6453 99.7271C68.2135 96.5907 69.7164 93.0622 71.1539 89.1417C70.3698 89.0763 69.6184 89.0437 68.8996 89.0437C68.1809 88.9783 67.4621 88.9457 66.7433 88.9457C64.195 88.9457 62.0714 89.1417 60.3725 89.5337H60.0784C59.425 89.5337 59.0983 89.109 59.0983 88.2596C59.0983 87.7368 59.229 87.2141 59.4903 86.6914C59.817 86.1686 60.2418 85.8746 60.7645 85.8092C61.7446 85.6132 62.9208 85.5152 64.293 85.5152C65.4038 85.5152 66.6126 85.5805 67.9195 85.7112C69.2917 85.8419 70.6965 86.0379 72.1341 86.2993C72.5261 85.1885 72.8855 84.0777 73.2122 82.9668C73.6043 81.7907 73.9637 80.6145 74.2904 79.4384C75.5972 74.7991 76.6427 70.1598 77.4268 65.5205C78.2762 60.8811 78.701 56.6339 78.701 52.7787C78.701 49.9036 78.4396 47.3226 77.9169 45.0356C77.3941 42.7487 76.5447 40.9518 75.3685 39.6449C74.7804 38.9915 74.1597 38.6648 73.5063 38.6648C72.7875 38.6648 72.0034 38.9915 71.1539 39.6449C69.7817 40.7557 68.5402 42.5853 67.4294 45.1337C66.3839 47.6167 65.5672 50.3937 64.9791 53.4648C64.391 56.4705 64.097 59.2803 64.097 61.894C64.097 63.3968 64.2277 64.769 64.489 66.0105C64.7504 67.252 65.1098 68.2322 65.5672 68.9509C65.8939 69.4083 66.1879 69.735 66.4493 69.9311C66.776 70.0617 67.07 70.1271 67.3314 70.1271C67.5928 70.1271 67.8215 70.0944 68.0175 70.0291C68.2789 69.9637 68.4749 69.9311 68.6056 69.9311C68.9323 69.9311 69.0957 69.9964 69.0957 70.1271C69.0957 70.2578 68.8343 70.4538 68.3115 70.7152C67.7888 70.9112 67.2007 71.0092 66.5473 71.0092C66.2859 71.0092 66.0246 71.0092 65.7632 71.0092C65.5672 70.9439 65.3711 70.8785 65.1751 70.8132C63.8029 70.2251 62.7901 69.1143 62.1367 67.4807C61.5486 65.8472 61.2546 63.9522 61.2546 61.7959C61.2546 59.3129 61.5813 56.6992 62.2347 53.9549C62.9535 51.2105 63.9009 48.6295 65.0771 46.2118C66.2533 43.7941 67.5928 41.8339 69.0957 40.331C70.5985 38.7628 72.1667 37.9787 73.8003 37.9787C75.0418 37.9787 76.218 38.4361 77.3288 39.3509C79.0277 40.7231 80.2038 42.6833 80.8573 45.2317C81.576 47.78 81.9354 50.6551 81.9354 53.8569C81.9354 57.32 81.6087 61.0445 80.9553 65.0304C80.3019 68.9509 79.4851 72.8061 78.5049 76.596C77.5248 80.3858 76.512 83.8163 75.4665 86.8874C77.9495 87.3448 80.4652 87.9329 83.0136 88.6516C85.5619 89.3704 87.9796 90.1218 90.2666 90.9059C90.2666 88.6843 90.4299 85.9072 90.7566 82.5748C91.0833 79.2423 91.6061 75.6485 92.3248 71.7933C93.1089 67.9381 94.0564 64.1156 95.1672 60.3257C96.3434 56.5359 97.6829 53.0727 99.1858 49.9363C100.754 46.7999 102.518 44.2842 104.478 42.3893C106.439 40.4944 108.628 39.5469 111.045 39.5469C113.202 39.5469 115.521 40.4617 118.004 42.2913C120.487 44.1209 123.134 47.1266 125.943 51.3085C126.466 52.0273 126.728 52.648 126.728 53.1708C126.728 53.4975 126.532 53.5628 126.139 53.3668C125.747 53.1708 125.159 52.5173 124.375 51.4065C122.023 47.8127 119.801 45.2643 117.71 43.7615C115.685 42.1933 113.79 41.4091 112.026 41.4091C110.065 41.4091 108.236 42.1606 106.537 43.6635C104.903 45.1663 103.433 47.1919 102.126 49.7403C100.819 52.2233 99.6432 54.9677 98.5977 57.9734C97.6176 60.9792 96.7681 64.0176 96.0493 67.0887C95.3959 70.0944 94.8732 72.9041 94.4811 75.5178C94.0891 78.0662 93.8604 80.1245 93.795 81.6927C93.7297 82.7381 93.6644 83.7836 93.599 84.8291C93.599 85.8092 93.599 86.7894 93.599 87.7695C93.599 88.4883 93.599 89.207 93.599 89.9258C93.6644 90.6446 93.697 91.3633 93.697 92.0821C97.7482 93.6503 100.983 95.5779 103.4 97.8649C105.883 100.152 107.648 102.537 108.693 105.02C109.804 107.503 110.359 109.888 110.359 112.175C110.359 114.985 109.641 117.37 108.203 119.33C106.831 121.29 105.099 122.27 103.008 122.27ZM103.204 121.29C104.184 121.29 105.067 120.8 105.851 119.82C107.746 117.337 108.693 114.756 108.693 112.077C108.693 109.463 107.942 107.013 106.439 104.726C104.936 102.374 103.041 100.315 100.754 98.551C98.467 96.7214 96.1474 95.3492 93.795 94.4344C93.9911 98.4203 94.3831 102.21 94.9712 105.804C95.5593 109.332 96.4087 112.371 97.5195 114.919C98.6304 117.533 100.003 119.461 101.636 120.702C102.224 121.094 102.747 121.29 103.204 121.29Z" fill="#FF77CD"/>
</svg>
